<?xml version="1.0" encoding="utf-8"?>
<!-- Generator: Adobe Illustrator 24.1.1, SVG Export Plug-In . SVG Version: 6.00 Build 0)  -->
<svg version="1.1" id="Layer_1" xmlns="http://www.w3.org/2000/svg" xmlns:xlink="http://www.w3.org/1999/xlink" x="0px" y="0px"
	 viewBox="0 0 40 40" style="enable-background:new 0 0 40 40;" xml:space="preserve">
<style type="text/css">
	.st0{fill:#FFFFFF;}
	.st1{fill:#EA001B;}
	.st2{fill:#F79F1A;}
	.st3{fill:#FF5F01;}
</style>
<path class="st0" d="M6.8,7.5h26c1.9,0,3.5,1.5,3.5,3.4c0,0,0,0,0,0v18.2c0,1.9-1.6,3.5-3.5,3.5c0,0,0,0,0,0h-26
	c-1.9,0-3.5-1.5-3.5-3.4c0,0,0,0,0,0V11C3.4,9.1,4.9,7.5,6.8,7.5C6.8,7.5,6.8,7.5,6.8,7.5z"/>
<path class="st1" d="M17.3,20.1c0-2.1,0.9-4.1,2.6-5.4c-3-2.4-7.3-2-9.8,1s-2,7.3,1,9.8c2.5,2.1,6.2,2.1,8.7,0
	C18.2,24.2,17.3,22.2,17.3,20.1z"/>
<path class="st2" d="M24.2,13.2c-1.6,0-3.1,0.5-4.4,1.6c3,2.4,3.4,6.8,1,9.8c-0.3,0.4-0.6,0.7-1,1c3,2.4,7.3,2,9.8-1s2-7.3-1-9.8
	C27.4,13.7,25.8,13.2,24.2,13.2z"/>
<path class="st3" d="M22.4,20.1c0-2.1-0.9-4.1-2.6-5.4c-3,2.4-3.4,6.8-1,9.8c0.3,0.4,0.6,0.7,1,1C21.5,24.2,22.4,22.2,22.4,20.1z"/>
</svg>
